<svg xmlns="http://www.w3.org/2000/svg" xmlns:xlink="http://www.w3.org/1999/xlink" width="500" height="500" viewBox="0 0 375 375" xmlns:v="https://vecta.io/nano"><defs><symbol overflow="visible" id="A"><path d="M70.578-42.219l-17.422.688c-10.711 0-17.918-.367-21.625-1.109-3.699-.738-7-1.617-9.906-2.641-2.906-1.031-5.215-2.227-6.922-3.594-4.219-3.195-6.328-7.473-6.328-12.828 0-1.594.969-3.984 2.906-7.172s5.27-6.973 10-11.359c4.727-4.395 10.367-8.555 16.922-12.484s15.18-7.367 25.891-10.328c10.707-2.969 22.328-4.68 34.859-5.141 4.445 0 9.145.543 14.094 1.625 4.957 1.086 9.063 2.367 12.313 3.844s6.125 3.73 8.625 6.75c2.508 3.023 3.766 6.527 3.766 10.516 0 3.188-3.078 6.605-9.234 10.25-6.836 4.105-15.867 6.156-27.094 6.156-11.219 0-16.828-.797-16.828-2.391 0-1.25 3.273-2.727 9.828-4.437 6.551-1.719 13.129-3.711 19.734-5.984 6.613-2.281 9.922-4.848 9.922-7.703 0-1.477-2.508-2.219-7.516-2.219-33.043 0-61.414 8.547-85.109 25.641-4.449 3.305-6.672 6.152-6.672 8.547 0 3.762 11.848 5.641 35.547 5.641 21.313.23 31.969 5.93 31.969 17.094 0 7.969-5.418 15.543-16.25 22.719C65.223-4.961 52.488.617 37.844 4.609 23.207 8.598 9.453 10.648-3.422 10.766c-6.031 0-12.406-1.594-19.125-4.781-6.727-3.187-10.094-7.062-10.094-11.625 0-1.477 1.25-2.273 3.75-2.391 13.449-1.477 22.055-3.07 25.813-4.781.918-.227 1.664-.344 2.234-.344.563 0 .844.117.844.344 0 .449-.68 1.188-2.047 2.219-1.258.68-2.629 1.305-4.109 1.875-3.187 1.148-4.781 1.891-4.781 2.234 0 .336 1.141.5 3.422.5 2.273 0 8.02-.91 17.25-2.734s19.113-4.156 29.656-7c10.539-2.852 19.852-6.383 27.938-10.594 8.094-4.219 12.141-8.266 12.141-12.141 0-2.508-2.965-3.766-8.891-3.766zm0 0" stroke="none"/></symbol><symbol overflow="visible" id="B"><path d="M75.031-109.031c.563-.687 1.297-1.031 2.203-1.031.914 0 1.773.453 2.578 1.359l1.703 1.891c.57.449.859.934.859 1.453 0 .512-.656 1.508-1.969 2.984L66.313-86.656 35.547-51.953c-1.367 1.367-2.047 2.195-2.047 2.484 0 .281.113.422.344.422s.797-.172 1.703-.516c11.281-3.187 26.32-10.219 45.125-21.094 18.801-10.883 28.203-18.379 28.203-22.484 0-.227-.262-.344-.781-.344-.512 0-1.398.289-2.656.859-1.25.563-2.445.844-3.578.844s-1.703-.625-1.703-1.875c0-.914.797-1.656 2.391-2.219 4.32-1.594 13.781-7.461 28.375-17.609.789-.789 1.695-1.187 2.719-1.187 1.031 0 2.539 1.086 4.531 3.25 2 2.156 3 4.262 3 6.313 0 13.105-10.086 25.125-30.25 36.063-17.324 9.574-40 18.746-68.031 27.516-1.937.574-2.906 1.141-2.906 1.703 0 1.938 2.477 6.043 7.438 12.313S58.25-14.914 65.031-8.531c6.781 6.375 12.133 10.27 16.063 11.688 3.926 1.426 5.891 3.281 5.891 5.563 0 .457-.453.91-1.359 1.359-5.355 2.625-9.797 3.938-13.328 3.938s-7.039-1.059-10.516-3.172c-3.48-2.105-6.902-5.18-10.266-9.219-3.355-4.039-6.312-7.883-8.875-11.531s-5.555-8.117-8.969-13.422-5.781-8.832-7.094-10.594c-1.312-1.77-2.281-2.656-2.906-2.656s-1.109.23-1.453.688C13.789-25.859 7.523-17.91 3.422-12.047S-4.102.113-6.844 6.844c-.102 1.02-.555 1.531-1.359 1.531-1.02 0-2.695-1.258-5.031-3.766-2.344-2.5-3.742-5.117-4.203-7.859 0-6.039 7.07-18.285 21.203-36.734 6.832-9.125 16.539-19.863 29.125-32.219 12.594-12.363 26.641-24.641 42.141-36.828zm0 0" stroke="none"/></symbol><clipPath id="C"><path d="M31.789 31.789h311.086v311.086H31.789zm0 0"/></clipPath><clipPath id="D"><path d="M342.875 187.332l-.187 7.633-.562 7.613-.934 7.578-1.305 7.52-1.672 7.449-2.039 7.359-2.395 7.25-2.746 7.121-3.094 6.98-3.434 6.816-3.762 6.645-4.086 6.449-4.395 6.242-4.699 6.02-4.984 5.781-5.266 5.527-5.527 5.266-5.781 4.984-6.02 4.699-6.242 4.395-6.449 4.086-6.645 3.762-6.816 3.434-6.98 3.094-7.121 2.746-7.25 2.395-7.359 2.039-7.449 1.672-7.52 1.305-7.578.934-7.613.563-7.633.188c-2.547 0-5.09-.062-7.633-.187l-7.613-.562-7.578-.934-7.52-1.305-7.449-1.672-7.359-2.039-7.25-2.395-7.121-2.746-6.98-3.094-6.82-3.434-6.641-3.762-6.449-4.086-6.242-4.395-6.02-4.699-5.781-4.984-5.527-5.266-5.266-5.527-4.988-5.781-4.695-6.02-4.395-6.242-4.086-6.449-3.762-6.645-3.434-6.816-3.094-6.98-2.746-7.121-2.395-7.25-2.039-7.359-1.672-7.449-1.305-7.52-.934-7.578-.562-7.613-.187-7.633.188-7.633.563-7.613.934-7.578 1.305-7.52 1.672-7.449 2.039-7.359 2.395-7.25 2.746-7.121 3.094-6.98 3.434-6.82 3.762-6.641 4.086-6.449 4.395-6.242 4.695-6.02 4.988-5.781 5.266-5.527 5.527-5.266 5.781-4.988 6.02-4.695 6.242-4.395 6.449-4.086 6.641-3.762 6.82-3.434 6.98-3.094 7.121-2.746 7.25-2.395 7.359-2.039 7.449-1.672 7.52-1.305 7.578-.934 7.613-.562 7.633-.187 7.633.188 7.613.563 7.578.934 7.52 1.305 7.449 1.672 7.359 2.039 7.25 2.395 7.121 2.746 6.98 3.094 6.816 3.434 6.645 3.762 6.449 4.086 6.242 4.395 6.02 4.695 5.781 4.988 5.527 5.266 5.266 5.527 4.984 5.781 4.699 6.02 4.395 6.242 4.086 6.449 3.762 6.641 3.434 6.82 3.094 6.98 2.746 7.121 2.395 7.25 2.039 7.359 1.672 7.449 1.305 7.52.934 7.578.563 7.613.188 7.633zm0 0"/></clipPath><linearGradient id="E" gradientUnits="userSpaceOnUse" x1="31.789" y1="31.789" x2="344.4" y2="341.335"><stop offset="0" stop-color="rgb(0%,76.899719%,79.998779%)"/><stop offset=".004" stop-color="rgb(0.186157%,76.66626%,80.041504%)"/><stop offset=".008" stop-color="rgb(0.37384%,76.4328%,80.084229%)"/><stop offset=".012" stop-color="rgb(0.561523%,76.199341%,80.126953%)"/><stop offset=".016" stop-color="rgb(0.749207%,75.965881%,80.169678%)"/><stop offset=".02" stop-color="rgb(0.93689%,75.732422%,80.210876%)"/><stop offset=".023" stop-color="rgb(1.124573%,75.500488%,80.253601%)"/><stop offset=".027" stop-color="rgb(1.312256%,75.267029%,80.296326%)"/><stop offset=".031" stop-color="rgb(1.499939%,75.033569%,80.33905%)"/><stop offset=".035" stop-color="rgb(1.687622%,74.80011%,80.381775%)"/><stop offset=".039" stop-color="rgb(1.875305%,74.568176%,80.4245%)"/><stop offset=".043" stop-color="rgb(2.062988%,74.334717%,80.465698%)"/><stop offset=".047" stop-color="rgb(2.250671%,74.101257%,80.508423%)"/><stop offset=".051" stop-color="rgb(2.438354%,73.867798%,80.551147%)"/><stop offset=".055" stop-color="rgb(2.626038%,73.634338%,80.593872%)"/><stop offset=".059" stop-color="rgb(2.813721%,73.400879%,80.636597%)"/><stop offset=".063" stop-color="rgb(3.001404%,73.168945%,80.679321%)"/><stop offset=".066" stop-color="rgb(3.189087%,72.935486%,80.72052%)"/><stop offset=".07" stop-color="rgb(3.37677%,72.702026%,80.763245%)"/><stop offset=".074" stop-color="rgb(3.562927%,72.468567%,80.805969%)"/><stop offset=".078" stop-color="rgb(3.75061%,72.236633%,80.848694%)"/><stop offset=".082" stop-color="rgb(3.938293%,72.003174%,80.891418%)"/><stop offset=".086" stop-color="rgb(4.125977%,71.769714%,80.934143%)"/><stop offset=".09" stop-color="rgb(4.31366%,71.536255%,80.975342%)"/><stop offset=".094" stop-color="rgb(4.501343%,71.302795%,81.018066%)"/><stop offset=".098" stop-color="rgb(4.689026%,71.069336%,81.060791%)"/><stop offset=".102" stop-color="rgb(4.876709%,70.837402%,81.103516%)"/><stop offset=".105" stop-color="rgb(5.064392%,70.603943%,81.144714%)"/><stop offset=".109" stop-color="rgb(5.252075%,70.370483%,81.187439%)"/><stop offset=".113" stop-color="rgb(5.439758%,70.137024%,81.230164%)"/><stop offset=".117" stop-color="rgb(5.627441%,69.90509%,81.272888%)"/><stop offset=".121" stop-color="rgb(5.815125%,69.671631%,81.315613%)"/><stop offset=".125" stop-color="rgb(6.002808%,69.438171%,81.358337%)"/><stop offset=".129" stop-color="rgb(6.190491%,69.204712%,81.399536%)"/><stop offset=".133" stop-color="rgb(6.378174%,68.971252%,81.442261%)"/><stop offset=".137" stop-color="rgb(6.565857%,68.737793%,81.484985%)"/><stop offset=".141" stop-color="rgb(6.75354%,68.505859%,81.52771%)"/><stop offset=".145" stop-color="rgb(6.941223%,68.2724%,81.570435%)"/><stop offset=".148" stop-color="rgb(7.128906%,68.03894%,81.613159%)"/><stop offset=".152" stop-color="rgb(7.315063%,67.805481%,81.654358%)"/><stop offset=".156" stop-color="rgb(7.502747%,67.573547%,81.697083%)"/><stop offset=".16" stop-color="rgb(7.69043%,67.340088%,81.739807%)"/><stop offset=".164" stop-color="rgb(7.878113%,67.106628%,81.782532%)"/><stop offset=".168" stop-color="rgb(8.065796%,66.873169%,81.825256%)"/><stop offset=".172" stop-color="rgb(8.253479%,66.641235%,81.867981%)"/><stop offset=".176" stop-color="rgb(8.441162%,66.407776%,81.90918%)"/><stop offset=".18" stop-color="rgb(8.628845%,66.174316%,81.951904%)"/><stop offset=".184" stop-color="rgb(8.816528%,65.940857%,81.994629%)"/><stop offset=".188" stop-color="rgb(9.004211%,65.707397%,82.037354%)"/><stop offset=".191" stop-color="rgb(9.191895%,65.473938%,82.080078%)"/><stop offset=".195" stop-color="rgb(9.379578%,65.242004%,82.122803%)"/><stop offset=".199" stop-color="rgb(9.567261%,65.008545%,82.164001%)"/><stop offset=".203" stop-color="rgb(9.754944%,64.775085%,82.206726%)"/><stop offset=".207" stop-color="rgb(9.942627%,64.541626%,82.249451%)"/><stop offset=".211" stop-color="rgb(10.13031%,64.309692%,82.292175%)"/><stop offset=".215" stop-color="rgb(10.317993%,64.076233%,82.3349%)"/><stop offset=".219" stop-color="rgb(10.505676%,63.842773%,82.377625%)"/><stop offset=".223" stop-color="rgb(10.691833%,63.609314%,82.418823%)"/><stop offset=".227" stop-color="rgb(10.879517%,63.375854%,82.461548%)"/><stop offset=".23" stop-color="rgb(11.0672%,63.142395%,82.504272%)"/><stop offset=".234" stop-color="rgb(11.254883%,62.910461%,82.546997%)"/><stop offset=".238" stop-color="rgb(11.442566%,62.677002%,82.589722%)"/><stop offset=".242" stop-color="rgb(11.630249%,62.443542%,82.632446%)"/><stop offset=".246" stop-color="rgb(11.817932%,62.210083%,82.673645%)"/><stop offset=".25" stop-color="rgb(12.005615%,61.978149%,82.71637%)"/><stop offset=".254" stop-color="rgb(12.193298%,61.74469%,82.759094%)"/><stop offset=".258" stop-color="rgb(12.380981%,61.51123%,82.801819%)"/><stop offset=".262" stop-color="rgb(12.568665%,61.277771%,82.844543%)"/><stop offset=".266" stop-color="rgb(12.756348%,61.044312%,82.887268%)"/><stop offset=".27" stop-color="rgb(12.944031%,60.810852%,82.928467%)"/><stop offset=".273" stop-color="rgb(13.131714%,60.578918%,82.971191%)"/><stop offset=".277" stop-color="rgb(13.319397%,60.345459%,83.013916%)"/><stop offset=".281" stop-color="rgb(13.50708%,60.112%,83.056641%)"/><stop offset=".285" stop-color="rgb(13.694763%,59.87854%,83.099365%)"/><stop offset=".289" stop-color="rgb(13.882446%,59.646606%,83.14209%)"/><stop offset=".293" stop-color="rgb(14.070129%,59.413147%,83.183289%)"/><stop offset=".297" stop-color="rgb(14.257812%,59.179688%,83.226013%)"/><stop offset=".301" stop-color="rgb(14.44397%,58.946228%,83.268738%)"/><stop offset=".305" stop-color="rgb(14.631653%,58.712769%,83.311462%)"/><stop offset=".309" stop-color="rgb(14.819336%,58.479309%,83.354187%)"/><stop offset=".313" stop-color="rgb(15.007019%,58.247375%,83.396912%)"/><stop offset=".316" stop-color="rgb(15.194702%,58.013916%,83.43811%)"/><stop offset=".32" stop-color="rgb(15.382385%,57.780457%,83.480835%)"/><stop offset=".324" stop-color="rgb(15.570068%,57.546997%,83.52356%)"/><stop offset=".328" stop-color="rgb(15.757751%,57.315063%,83.566284%)"/><stop offset=".332" stop-color="rgb(15.945435%,57.081604%,83.607483%)"/><stop offset=".336" stop-color="rgb(16.133118%,56.848145%,83.650208%)"/><stop offset=".34" stop-color="rgb(16.320801%,56.614685%,83.692932%)"/><stop offset=".344" stop-color="rgb(16.508484%,56.381226%,83.735657%)"/><stop offset=".348" stop-color="rgb(16.696167%,56.147766%,83.778381%)"/><stop offset=".352" stop-color="rgb(16.88385%,55.915833%,83.821106%)"/><stop offset=".355" stop-color="rgb(17.071533%,55.682373%,83.862305%)"/><stop offset=".359" stop-color="rgb(17.259216%,55.448914%,83.905029%)"/><stop offset=".363" stop-color="rgb(17.446899%,55.215454%,83.947754%)"/><stop offset=".367" stop-color="rgb(17.634583%,54.983521%,83.990479%)"/><stop offset=".371" stop-color="rgb(17.822266%,54.750061%,84.033203%)"/><stop offset=".375" stop-color="rgb(18.009949%,54.516602%,84.075928%)"/><stop offset=".379" stop-color="rgb(18.196106%,54.283142%,84.117126%)"/><stop offset=".383" stop-color="rgb(18.383789%,54.049683%,84.159851%)"/><stop offset=".387" stop-color="rgb(18.571472%,53.816223%,84.202576%)"/><stop offset=".391" stop-color="rgb(18.759155%,53.58429%,84.2453%)"/><stop offset=".395" stop-color="rgb(18.946838%,53.35083%,84.288025%)"/><stop offset=".398" stop-color="rgb(19.134521%,53.117371%,84.33075%)"/><stop offset=".402" stop-color="rgb(19.322205%,52.883911%,84.371948%)"/><stop offset=".406" stop-color="rgb(19.509888%,52.651978%,84.414673%)"/><stop offset=".41" stop-color="rgb(19.697571%,52.418518%,84.457397%)"/><stop offset=".414" stop-color="rgb(19.885254%,52.185059%,84.500122%)"/><stop offset=".418" stop-color="rgb(20.072937%,51.951599%,84.542847%)"/><stop offset=".422" stop-color="rgb(20.26062%,51.71814%,84.585571%)"/><stop offset=".426" stop-color="rgb(20.448303%,51.48468%,84.62677%)"/><stop offset=".43" stop-color="rgb(20.635986%,51.252747%,84.669495%)"/><stop offset=".434" stop-color="rgb(20.823669%,51.019287%,84.712219%)"/><stop offset=".438" stop-color="rgb(21.011353%,50.785828%,84.754944%)"/><stop offset=".441" stop-color="rgb(21.199036%,50.552368%,84.797668%)"/><stop offset=".445" stop-color="rgb(21.386719%,50.320435%,84.840393%)"/><stop offset=".449" stop-color="rgb(21.572876%,50.086975%,84.881592%)"/><stop offset=".453" stop-color="rgb(21.760559%,49.853516%,84.924316%)"/><stop offset=".457" stop-color="rgb(21.948242%,49.620056%,84.967041%)"/><stop offset=".461" stop-color="rgb(22.135925%,49.386597%,85.009766%)"/><stop offset=".465" stop-color="rgb(22.323608%,49.153137%,85.05249%)"/><stop offset=".469" stop-color="rgb(22.511292%,48.921204%,85.095215%)"/><stop offset=".473" stop-color="rgb(22.698975%,48.687744%,85.136414%)"/><stop offset=".477" stop-color="rgb(22.886658%,48.454285%,85.179138%)"/><stop offset=".48" stop-color="rgb(23.074341%,48.220825%,85.221863%)"/><stop offset=".484" stop-color="rgb(23.262024%,47.988892%,85.264587%)"/><stop offset=".488" stop-color="rgb(23.449707%,47.755432%,85.307312%)"/><stop offset=".492" stop-color="rgb(23.63739%,47.521973%,85.350037%)"/><stop offset=".496" stop-color="rgb(23.825073%,47.288513%,85.391235%)"/><stop offset=".5" stop-color="rgb(24.012756%,47.055054%,85.43396%)"/><stop offset=".504" stop-color="rgb(24.200439%,46.821594%,85.476685%)"/><stop offset=".508" stop-color="rgb(24.388123%,46.589661%,85.519409%)"/><stop offset=".512" stop-color="rgb(24.575806%,46.356201%,85.562134%)"/><stop offset=".516" stop-color="rgb(24.763489%,46.122742%,85.604858%)"/><stop offset=".52" stop-color="rgb(24.951172%,45.889282%,85.646057%)"/><stop offset=".523" stop-color="rgb(25.138855%,45.657349%,85.688782%)"/><stop offset=".527" stop-color="rgb(25.325012%,45.423889%,85.731506%)"/><stop offset=".531" stop-color="rgb(25.512695%,45.19043%,85.774231%)"/><stop offset=".535" stop-color="rgb(25.700378%,44.95697%,85.816956%)"/><stop offset=".539" stop-color="rgb(25.888062%,44.723511%,85.85968%)"/><stop offset=".543" stop-color="rgb(26.075745%,44.490051%,85.900879%)"/><stop offset=".547" stop-color="rgb(26.263428%,44.258118%,85.943604%)"/><stop offset=".551" stop-color="rgb(26.451111%,44.024658%,85.986328%)"/><stop offset=".555" stop-color="rgb(26.638794%,43.791199%,86.029053%)"/><stop offset=".559" stop-color="rgb(26.826477%,43.557739%,86.070251%)"/><stop offset=".563" stop-color="rgb(27.01416%,43.325806%,86.112976%)"/><stop offset=".566" stop-color="rgb(27.201843%,43.092346%,86.155701%)"/><stop offset=".57" stop-color="rgb(27.389526%,42.858887%,86.198425%)"/><stop offset=".574" stop-color="rgb(27.577209%,42.625427%,86.24115%)"/><stop offset=".578" stop-color="rgb(27.764893%,42.391968%,86.283875%)"/><stop offset=".582" stop-color="rgb(27.952576%,42.158508%,86.325073%)"/><stop offset=".586" stop-color="rgb(28.140259%,41.926575%,86.367798%)"/><stop offset=".59" stop-color="rgb(28.327942%,41.693115%,86.410522%)"/><stop offset=".594" stop-color="rgb(28.515625%,41.459656%,86.453247%)"/><stop offset=".598" stop-color="rgb(28.701782%,41.226196%,86.495972%)"/><stop offset=".602" stop-color="rgb(28.889465%,40.994263%,86.538696%)"/><stop offset=".605" stop-color="rgb(29.077148%,40.760803%,86.579895%)"/><stop offset=".609" stop-color="rgb(29.264832%,40.527344%,86.62262%)"/><stop offset=".613" stop-color="rgb(29.452515%,40.293884%,86.665344%)"/><stop offset=".617" stop-color="rgb(29.640198%,40.060425%,86.708069%)"/><stop offset=".621" stop-color="rgb(29.827881%,39.826965%,86.750793%)"/><stop offset=".625" stop-color="rgb(30.015564%,39.595032%,86.793518%)"/><stop offset=".629" stop-color="rgb(30.203247%,39.361572%,86.834717%)"/><stop offset=".633" stop-color="rgb(30.39093%,39.128113%,86.877441%)"/><stop offset=".637" stop-color="rgb(30.578613%,38.894653%,86.920166%)"/><stop offset=".641" stop-color="rgb(30.766296%,38.66272%,86.962891%)"/><stop offset=".645" stop-color="rgb(30.953979%,38.42926%,87.005615%)"/><stop offset=".648" stop-color="rgb(31.141663%,38.195801%,87.04834%)"/><stop offset=".652" stop-color="rgb(31.329346%,37.962341%,87.089539%)"/><stop offset=".656" stop-color="rgb(31.517029%,37.728882%,87.132263%)"/><stop offset=".66" stop-color="rgb(31.704712%,37.495422%,87.174988%)"/><stop offset=".664" stop-color="rgb(31.892395%,37.263489%,87.217712%)"/><stop offset=".668" stop-color="rgb(32.080078%,37.030029%,87.260437%)"/><stop offset=".672" stop-color="rgb(32.267761%,36.79657%,87.303162%)"/><stop offset=".676" stop-color="rgb(32.453918%,36.56311%,87.34436%)"/><stop offset=".68" stop-color="rgb(32.641602%,36.331177%,87.387085%)"/><stop offset=".684" stop-color="rgb(32.829285%,36.097717%,87.42981%)"/><stop offset=".688" stop-color="rgb(33.016968%,35.864258%,87.472534%)"/><stop offset=".691" stop-color="rgb(33.204651%,35.630798%,87.515259%)"/><stop offset=".695" stop-color="rgb(33.392334%,35.397339%,87.557983%)"/><stop offset=".699" stop-color="rgb(33.580017%,35.163879%,87.599182%)"/><stop offset=".703" stop-color="rgb(33.7677%,34.931946%,87.641907%)"/><stop offset=".707" stop-color="rgb(33.955383%,34.698486%,87.684631%)"/><stop offset=".711" stop-color="rgb(34.143066%,34.465027%,87.727356%)"/><stop offset=".715" stop-color="rgb(34.33075%,34.231567%,87.770081%)"/><stop offset=".719" stop-color="rgb(34.518433%,33.999634%,87.812805%)"/><stop offset=".723" stop-color="rgb(34.706116%,33.766174%,87.854004%)"/><stop offset=".727" stop-color="rgb(34.893799%,33.532715%,87.896729%)"/><stop offset=".73" stop-color="rgb(35.081482%,33.299255%,87.939453%)"/><stop offset=".734" stop-color="rgb(35.269165%,33.065796%,87.982178%)"/><stop offset=".738" stop-color="rgb(35.456848%,32.832336%,88.024902%)"/><stop offset=".742" stop-color="rgb(35.644531%,32.600403%,88.067627%)"/><stop offset=".746" stop-color="rgb(35.832214%,32.366943%,88.108826%)"/><stop offset=".75" stop-color="rgb(36.019897%,32.133484%,88.15155%)"/><stop offset=".754" stop-color="rgb(36.206055%,31.900024%,88.194275%)"/><stop offset=".758" stop-color="rgb(36.393738%,31.668091%,88.237%)"/><stop offset=".762" stop-color="rgb(36.581421%,31.434631%,88.279724%)"/><stop offset=".766" stop-color="rgb(36.769104%,31.201172%,88.322449%)"/><stop offset=".77" stop-color="rgb(36.956787%,30.967712%,88.363647%)"/><stop offset=".773" stop-color="rgb(37.14447%,30.734253%,88.406372%)"/><stop offset=".777" stop-color="rgb(37.332153%,30.500793%,88.449097%)"/><stop offset=".781" stop-color="rgb(37.519836%,30.26886%,88.491821%)"/><stop offset=".785" stop-color="rgb(37.70752%,30.0354%,88.534546%)"/><stop offset=".789" stop-color="rgb(37.895203%,29.801941%,88.577271%)"/><stop offset=".793" stop-color="rgb(38.082886%,29.568481%,88.618469%)"/><stop offset=".797" stop-color="rgb(38.270569%,29.336548%,88.661194%)"/><stop offset=".801" stop-color="rgb(38.458252%,29.103088%,88.703918%)"/><stop offset=".805" stop-color="rgb(38.645935%,28.869629%,88.746643%)"/><stop offset=".809" stop-color="rgb(38.833618%,28.636169%,88.787842%)"/><stop offset=".813" stop-color="rgb(39.021301%,28.40271%,88.830566%)"/><stop offset=".816" stop-color="rgb(39.208984%,28.16925%,88.873291%)"/><stop offset=".82" stop-color="rgb(39.396667%,27.937317%,88.916016%)"/><stop offset=".824" stop-color="rgb(39.582825%,27.703857%,88.95874%)"/><stop offset=".828" stop-color="rgb(39.770508%,27.470398%,89.001465%)"/><stop offset=".832" stop-color="rgb(39.958191%,27.236938%,89.042664%)"/><stop offset=".836" stop-color="rgb(40.145874%,27.005005%,89.085388%)"/><stop offset=".84" stop-color="rgb(40.333557%,26.771545%,89.128113%)"/><stop offset=".844" stop-color="rgb(40.52124%,26.538086%,89.170837%)"/><stop offset=".848" stop-color="rgb(40.708923%,26.304626%,89.213562%)"/><stop offset=".852" stop-color="rgb(40.896606%,26.071167%,89.256287%)"/><stop offset=".855" stop-color="rgb(41.08429%,25.837708%,89.297485%)"/><stop offset=".859" stop-color="rgb(41.271973%,25.605774%,89.34021%)"/><stop offset=".863" stop-color="rgb(41.459656%,25.372314%,89.382935%)"/><stop offset=".867" stop-color="rgb(41.647339%,25.138855%,89.425659%)"/><stop offset=".871" stop-color="rgb(41.835022%,24.905396%,89.468384%)"/><stop offset=".875" stop-color="rgb(42.022705%,24.673462%,89.511108%)"/><stop offset=".879" stop-color="rgb(42.210388%,24.440002%,89.552307%)"/><stop offset=".883" stop-color="rgb(42.398071%,24.206543%,89.595032%)"/><stop offset=".887" stop-color="rgb(42.585754%,23.973083%,89.637756%)"/><stop offset=".891" stop-color="rgb(42.773438%,23.739624%,89.680481%)"/><stop offset=".895" stop-color="rgb(42.961121%,23.506165%,89.723206%)"/><stop offset=".898" stop-color="rgb(43.148804%,23.274231%,89.76593%)"/><stop offset=".902" stop-color="rgb(43.334961%,23.040771%,89.807129%)"/><stop offset=".906" stop-color="rgb(43.522644%,22.807312%,89.849854%)"/><stop offset=".91" stop-color="rgb(43.710327%,22.573853%,89.892578%)"/><stop offset=".914" stop-color="rgb(43.89801%,22.341919%,89.935303%)"/><stop offset=".918" stop-color="rgb(44.085693%,22.108459%,89.978027%)"/><stop offset=".922" stop-color="rgb(44.273376%,21.875%,90.020752%)"/><stop offset=".926" stop-color="rgb(44.46106%,21.641541%,90.061951%)"/><stop offset=".93" stop-color="rgb(44.648743%,21.408081%,90.104675%)"/><stop offset=".934" stop-color="rgb(44.836426%,21.174622%,90.1474%)"/><stop offset=".938" stop-color="rgb(45.024109%,20.942688%,90.190125%)"/><stop offset=".941" stop-color="rgb(45.211792%,20.709229%,90.232849%)"/><stop offset=".945" stop-color="rgb(45.399475%,20.475769%,90.275574%)"/><stop offset=".949" stop-color="rgb(45.587158%,20.24231%,90.316772%)"/><stop offset=".953" stop-color="rgb(45.774841%,20.010376%,90.359497%)"/><stop offset=".957" stop-color="rgb(45.962524%,19.776917%,90.402222%)"/><stop offset=".961" stop-color="rgb(46.150208%,19.543457%,90.444946%)"/><stop offset=".965" stop-color="rgb(46.337891%,19.309998%,90.487671%)"/><stop offset=".969" stop-color="rgb(46.525574%,19.076538%,90.530396%)"/><stop offset=".973" stop-color="rgb(46.713257%,18.843079%,90.571594%)"/><stop offset=".977" stop-color="rgb(46.90094%,18.611145%,90.614319%)"/><stop offset=".98" stop-color="rgb(47.087097%,18.377686%,90.657043%)"/><stop offset=".984" stop-color="rgb(47.27478%,18.144226%,90.699768%)"/><stop offset=".988" stop-color="rgb(47.462463%,17.910767%,90.742493%)"/><stop offset=".992" stop-color="rgb(47.650146%,17.678833%,90.785217%)"/><stop offset=".996" stop-color="rgb(47.83783%,17.445374%,90.826416%)"/><stop offset="1" stop-color="rgb(48.025513%,17.211914%,90.869141%)"/></linearGradient></defs><g clip-path="url(#C)"><g clip-path="url(#D)"><path d="M31.789 31.789v311.086h311.086V31.789zm0 0" fill="url(#E)"/></g></g><g fill="rgb(100%,100%,100%)"><use xlink:href="#A" x="84.334" y="240.881"/><use xlink:href="#B" x="181.071" y="240.881"/></g></svg>