<svg xmlns="http://www.w3.org/2000/svg" xmlns:xlink="http://www.w3.org/1999/xlink" width="375" viewBox="0 0 375 375" height="375" version="1.0"><defs><clipPath id="a"><path d="M 31.789062 31.789062 L 343.039062 31.789062 L 343.039062 343.039062 L 31.789062 343.039062 Z M 31.789062 31.789062"/></clipPath><clipPath id="b"><path d="M 343.039062 187.414062 C 343.039062 189.960938 342.976562 192.507812 342.851562 195.050781 C 342.726562 197.59375 342.539062 200.132812 342.289062 202.667969 C 342.039062 205.203125 341.726562 207.730469 341.355469 210.25 C 340.980469 212.769531 340.546875 215.277344 340.046875 217.773438 C 339.550781 220.273438 338.992188 222.757812 338.375 225.226562 C 337.757812 227.699219 337.078125 230.152344 336.335938 232.589844 C 335.597656 235.027344 334.800781 237.445312 333.941406 239.84375 C 333.082031 242.242188 332.167969 244.617188 331.191406 246.96875 C 330.21875 249.320312 329.1875 251.648438 328.097656 253.953125 C 327.007812 256.253906 325.863281 258.527344 324.664062 260.773438 C 323.460938 263.019531 322.207031 265.238281 320.898438 267.421875 C 319.589844 269.605469 318.226562 271.757812 316.8125 273.875 C 315.394531 275.992188 313.929688 278.074219 312.414062 280.121094 C 310.894531 282.164062 309.328125 284.171875 307.714844 286.140625 C 306.097656 288.109375 304.433594 290.039062 302.722656 291.925781 C 301.015625 293.8125 299.257812 295.65625 297.457031 297.457031 C 295.65625 299.257812 293.8125 301.015625 291.925781 302.722656 C 290.039062 304.433594 288.109375 306.097656 286.140625 307.714844 C 284.171875 309.328125 282.164062 310.894531 280.121094 312.414062 C 278.074219 313.929688 275.992188 315.394531 273.875 316.8125 C 271.757812 318.226562 269.605469 319.589844 267.421875 320.898438 C 265.238281 322.207031 263.019531 323.460938 260.773438 324.664062 C 258.527344 325.863281 256.253906 327.007812 253.953125 328.097656 C 251.648438 329.1875 249.320312 330.21875 246.96875 331.191406 C 244.617188 332.167969 242.242188 333.082031 239.84375 333.941406 C 237.445312 334.800781 235.027344 335.597656 232.589844 336.335938 C 230.152344 337.078125 227.699219 337.757812 225.226562 338.375 C 222.757812 338.992188 220.273438 339.550781 217.773438 340.046875 C 215.277344 340.546875 212.769531 340.980469 210.25 341.355469 C 207.730469 341.726562 205.203125 342.039062 202.667969 342.289062 C 200.132812 342.539062 197.59375 342.726562 195.050781 342.851562 C 192.507812 342.976562 189.960938 343.039062 187.414062 343.039062 C 184.867188 343.039062 182.320312 342.976562 179.777344 342.851562 C 177.234375 342.726562 174.695312 342.539062 172.160156 342.289062 C 169.625 342.039062 167.097656 341.726562 164.578125 341.355469 C 162.058594 340.980469 159.550781 340.546875 157.054688 340.046875 C 154.554688 339.550781 152.070312 338.992188 149.601562 338.375 C 147.128906 337.757812 144.675781 337.078125 142.238281 336.335938 C 139.800781 335.597656 137.382812 334.800781 134.984375 333.941406 C 132.585938 333.082031 130.210938 332.167969 127.859375 331.191406 C 125.503906 330.21875 123.179688 329.1875 120.875 328.097656 C 118.574219 327.007812 116.300781 325.863281 114.050781 324.664062 C 111.804688 323.460938 109.589844 322.207031 107.40625 320.898438 C 105.222656 319.589844 103.070312 318.226562 100.953125 316.8125 C 98.835938 315.394531 96.753906 313.929688 94.707031 312.414062 C 92.664062 310.894531 90.65625 309.328125 88.6875 307.714844 C 86.71875 306.097656 84.789062 304.433594 82.902344 302.722656 C 81.015625 301.015625 79.171875 299.257812 77.371094 297.457031 C 75.570312 295.65625 73.8125 293.8125 72.101562 291.925781 C 70.394531 290.039062 68.730469 288.109375 67.113281 286.140625 C 65.5 284.171875 63.933594 282.164062 62.414062 280.121094 C 60.898438 278.074219 59.429688 275.992188 58.015625 273.875 C 56.601562 271.757812 55.238281 269.605469 53.929688 267.421875 C 52.621094 265.238281 51.367188 263.019531 50.164062 260.773438 C 48.964844 258.527344 47.820312 256.253906 46.730469 253.953125 C 45.640625 251.648438 44.609375 249.320312 43.636719 246.96875 C 42.660156 244.617188 41.742188 242.242188 40.886719 239.84375 C 40.027344 237.445312 39.230469 235.027344 38.488281 232.589844 C 37.75 230.152344 37.070312 227.699219 36.453125 225.226562 C 35.832031 222.757812 35.277344 220.273438 34.777344 217.773438 C 34.28125 215.277344 33.847656 212.769531 33.472656 210.25 C 33.097656 207.730469 32.789062 205.203125 32.539062 202.667969 C 32.289062 200.132812 32.101562 197.59375 31.976562 195.050781 C 31.851562 192.507812 31.789062 189.960938 31.789062 187.414062 C 31.789062 184.867188 31.851562 182.320312 31.976562 179.777344 C 32.101562 177.234375 32.289062 174.695312 32.539062 172.160156 C 32.789062 169.625 33.097656 167.097656 33.472656 164.578125 C 33.847656 162.058594 34.28125 159.550781 34.777344 157.054688 C 35.277344 154.554688 35.832031 152.070312 36.453125 149.601562 C 37.070312 147.128906 37.75 144.675781 38.488281 142.238281 C 39.230469 139.800781 40.027344 137.382812 40.886719 134.984375 C 41.742188 132.585938 42.660156 130.210938 43.636719 127.859375 C 44.609375 125.503906 45.640625 123.179688 46.730469 120.875 C 47.820312 118.574219 48.964844 116.300781 50.164062 114.050781 C 51.367188 111.804688 52.621094 109.589844 53.929688 107.40625 C 55.238281 105.222656 56.601562 103.070312 58.015625 100.953125 C 59.429688 98.835938 60.898438 96.753906 62.414062 94.707031 C 63.933594 92.664062 65.5 90.65625 67.113281 88.6875 C 68.730469 86.71875 70.394531 84.789062 72.101562 82.902344 C 73.8125 81.015625 75.570312 79.171875 77.371094 77.371094 C 79.171875 75.570312 81.015625 73.8125 82.902344 72.101562 C 84.789062 70.394531 86.71875 68.730469 88.6875 67.113281 C 90.65625 65.5 92.664062 63.933594 94.707031 62.414062 C 96.753906 60.898438 98.835938 59.429688 100.953125 58.015625 C 103.070312 56.601562 105.222656 55.238281 107.40625 53.929688 C 109.589844 52.621094 111.804688 51.367188 114.050781 50.164062 C 116.300781 48.964844 118.574219 47.820312 120.875 46.730469 C 123.179688 45.640625 125.503906 44.609375 127.859375 43.636719 C 130.210938 42.660156 132.585938 41.742188 134.984375 40.886719 C 137.382812 40.027344 139.800781 39.230469 142.238281 38.488281 C 144.675781 37.75 147.128906 37.070312 149.601562 36.453125 C 152.070312 35.832031 154.554688 35.277344 157.054688 34.777344 C 159.550781 34.28125 162.058594 33.847656 164.578125 33.472656 C 167.097656 33.097656 169.625 32.789062 172.160156 32.539062 C 174.695312 32.289062 177.234375 32.101562 179.777344 31.976562 C 182.320312 31.851562 184.867188 31.789062 187.414062 31.789062 C 189.960938 31.789062 192.507812 31.851562 195.050781 31.976562 C 197.59375 32.101562 200.132812 32.289062 202.667969 32.539062 C 205.203125 32.789062 207.730469 33.097656 210.25 33.472656 C 212.769531 33.847656 215.277344 34.28125 217.773438 34.777344 C 220.273438 35.277344 222.757812 35.832031 225.226562 36.453125 C 227.699219 37.070312 230.152344 37.75 232.589844 38.488281 C 235.027344 39.230469 237.445312 40.027344 239.84375 40.886719 C 242.242188 41.742188 244.617188 42.660156 246.96875 43.636719 C 249.320312 44.609375 251.648438 45.640625 253.953125 46.730469 C 256.253906 47.820312 258.527344 48.964844 260.773438 50.164062 C 263.019531 51.367188 265.238281 52.621094 267.421875 53.929688 C 269.605469 55.238281 271.757812 56.601562 273.875 58.015625 C 275.992188 59.429688 278.074219 60.898438 280.121094 62.414062 C 282.164062 63.933594 284.171875 65.5 286.140625 67.113281 C 288.109375 68.730469 290.039062 70.394531 291.925781 72.101562 C 293.8125 73.8125 295.65625 75.570312 297.457031 77.371094 C 299.257812 79.171875 301.015625 81.015625 302.722656 82.902344 C 304.433594 84.789062 306.097656 86.71875 307.714844 88.6875 C 309.328125 90.65625 310.894531 92.664062 312.414062 94.707031 C 313.929688 96.753906 315.394531 98.835938 316.8125 100.953125 C 318.226562 103.070312 319.589844 105.222656 320.898438 107.40625 C 322.207031 109.589844 323.460938 111.804688 324.664062 114.050781 C 325.863281 116.300781 327.007812 118.574219 328.097656 120.875 C 329.1875 123.179688 330.21875 125.503906 331.191406 127.859375 C 332.167969 130.210938 333.082031 132.585938 333.941406 134.984375 C 334.800781 137.382812 335.597656 139.800781 336.335938 142.238281 C 337.078125 144.675781 337.757812 147.128906 338.375 149.601562 C 338.992188 152.070312 339.550781 154.554688 340.046875 157.054688 C 340.546875 159.550781 340.980469 162.058594 341.355469 164.578125 C 341.726562 167.097656 342.039062 169.625 342.289062 172.160156 C 342.539062 174.695312 342.726562 177.234375 342.851562 179.777344 C 342.976562 182.320312 343.039062 184.867188 343.039062 187.414062 Z M 343.039062 187.414062"/></clipPath><linearGradient x1="0" gradientTransform="matrix(311.25 0 0 311.25 31.789 31.789)" xmlns:xlink="http://www.w3.org/1999/xlink" y1="0" x2="1.005" gradientUnits="userSpaceOnUse" y2=".995" xlink:type="simple" xlink:actuate="onLoad" id="c" xlink:show="other"><stop stop-color="#00C4CC" offset="0"/><stop stop-color="#00C3CC" offset=".004"/><stop stop-color="#01C3CC" offset=".008"/><stop stop-color="#01C2CC" offset=".012"/><stop stop-color="#02C2CC" offset=".016"/><stop stop-color="#02C1CD" offset=".02"/><stop stop-color="#03C1CD" offset=".023"/><stop stop-color="#03C0CD" offset=".027"/><stop stop-color="#04BFCD" offset=".031"/><stop stop-color="#04BFCD" offset=".035"/><stop stop-color="#05BECD" offset=".039"/><stop stop-color="#05BECD" offset=".043"/><stop stop-color="#06BDCD" offset=".047"/><stop stop-color="#06BCCD" offset=".051"/><stop stop-color="#07BCCE" offset=".055"/><stop stop-color="#07BBCE" offset=".059"/><stop stop-color="#08BBCE" offset=".063"/><stop stop-color="#08BACE" offset=".066"/><stop stop-color="#09B9CE" offset=".07"/><stop stop-color="#09B9CE" offset=".074"/><stop stop-color="#0AB8CE" offset=".078"/><stop stop-color="#0AB8CE" offset=".082"/><stop stop-color="#0BB7CE" offset=".086"/><stop stop-color="#0BB6CE" offset=".09"/><stop stop-color="#0BB6CF" offset=".094"/><stop stop-color="#0CB5CF" offset=".098"/><stop stop-color="#0CB5CF" offset=".102"/><stop stop-color="#0DB4CF" offset=".105"/><stop stop-color="#0DB3CF" offset=".109"/><stop stop-color="#0EB3CF" offset=".113"/><stop stop-color="#0EB2CF" offset=".117"/><stop stop-color="#0FB2CF" offset=".121"/><stop stop-color="#0FB1CF" offset=".125"/><stop stop-color="#10B0D0" offset=".129"/><stop stop-color="#10B0D0" offset=".133"/><stop stop-color="#11AFD0" offset=".137"/><stop stop-color="#11AFD0" offset=".141"/><stop stop-color="#12AED0" offset=".145"/><stop stop-color="#12ADD0" offset=".148"/><stop stop-color="#13ADD0" offset=".152"/><stop stop-color="#13ACD0" offset=".156"/><stop stop-color="#14ACD0" offset=".16"/><stop stop-color="#14ABD1" offset=".164"/><stop stop-color="#15ABD1" offset=".168"/><stop stop-color="#15AAD1" offset=".172"/><stop stop-color="#16A9D1" offset=".176"/><stop stop-color="#16A9D1" offset=".18"/><stop stop-color="#16A8D1" offset=".184"/><stop stop-color="#17A8D1" offset=".188"/><stop stop-color="#17A7D1" offset=".191"/><stop stop-color="#18A6D1" offset=".195"/><stop stop-color="#18A6D2" offset=".199"/><stop stop-color="#19A5D2" offset=".203"/><stop stop-color="#19A5D2" offset=".207"/><stop stop-color="#1AA4D2" offset=".211"/><stop stop-color="#1AA3D2" offset=".215"/><stop stop-color="#1BA3D2" offset=".219"/><stop stop-color="#1BA2D2" offset=".223"/><stop stop-color="#1CA2D2" offset=".227"/><stop stop-color="#1CA1D2" offset=".23"/><stop stop-color="#1DA0D2" offset=".234"/><stop stop-color="#1DA0D3" offset=".238"/><stop stop-color="#1E9FD3" offset=".242"/><stop stop-color="#1E9FD3" offset=".246"/><stop stop-color="#1F9ED3" offset=".25"/><stop stop-color="#1F9DD3" offset=".254"/><stop stop-color="#209DD3" offset=".258"/><stop stop-color="#209CD3" offset=".262"/><stop stop-color="#219CD3" offset=".266"/><stop stop-color="#219BD3" offset=".27"/><stop stop-color="#219AD4" offset=".273"/><stop stop-color="#229AD4" offset=".277"/><stop stop-color="#2299D4" offset=".281"/><stop stop-color="#2399D4" offset=".285"/><stop stop-color="#2398D4" offset=".289"/><stop stop-color="#2498D4" offset=".293"/><stop stop-color="#2497D4" offset=".297"/><stop stop-color="#2596D4" offset=".301"/><stop stop-color="#2596D4" offset=".305"/><stop stop-color="#2695D5" offset=".309"/><stop stop-color="#2695D5" offset=".313"/><stop stop-color="#2794D5" offset=".316"/><stop stop-color="#2793D5" offset=".32"/><stop stop-color="#2893D5" offset=".324"/><stop stop-color="#2892D5" offset=".328"/><stop stop-color="#2992D5" offset=".332"/><stop stop-color="#2991D5" offset=".336"/><stop stop-color="#2A90D5" offset=".34"/><stop stop-color="#2A90D6" offset=".344"/><stop stop-color="#2B8FD6" offset=".348"/><stop stop-color="#2B8FD6" offset=".352"/><stop stop-color="#2C8ED6" offset=".355"/><stop stop-color="#2C8DD6" offset=".359"/><stop stop-color="#2C8DD6" offset=".363"/><stop stop-color="#2D8CD6" offset=".367"/><stop stop-color="#2D8CD6" offset=".371"/><stop stop-color="#2E8BD6" offset=".375"/><stop stop-color="#2E8AD6" offset=".379"/><stop stop-color="#2F8AD7" offset=".383"/><stop stop-color="#2F89D7" offset=".387"/><stop stop-color="#3089D7" offset=".391"/><stop stop-color="#3088D7" offset=".395"/><stop stop-color="#3187D7" offset=".398"/><stop stop-color="#3187D7" offset=".402"/><stop stop-color="#3286D7" offset=".406"/><stop stop-color="#3286D7" offset=".41"/><stop stop-color="#3385D7" offset=".414"/><stop stop-color="#3384D8" offset=".418"/><stop stop-color="#3484D8" offset=".422"/><stop stop-color="#3483D8" offset=".426"/><stop stop-color="#3583D8" offset=".43"/><stop stop-color="#3582D8" offset=".434"/><stop stop-color="#3682D8" offset=".438"/><stop stop-color="#3681D8" offset=".441"/><stop stop-color="#3780D8" offset=".445"/><stop stop-color="#3780D8" offset=".449"/><stop stop-color="#377FD9" offset=".453"/><stop stop-color="#387FD9" offset=".457"/><stop stop-color="#387ED9" offset=".461"/><stop stop-color="#397DD9" offset=".465"/><stop stop-color="#397DD9" offset=".469"/><stop stop-color="#3A7CD9" offset=".473"/><stop stop-color="#3A7CD9" offset=".477"/><stop stop-color="#3B7BD9" offset=".48"/><stop stop-color="#3B7AD9" offset=".484"/><stop stop-color="#3C7ADA" offset=".488"/><stop stop-color="#3C79DA" offset=".492"/><stop stop-color="#3D79DA" offset=".496"/><stop stop-color="#3D78DA" offset=".5"/><stop stop-color="#3E77DA" offset=".504"/><stop stop-color="#3E77DA" offset=".508"/><stop stop-color="#3F76DA" offset=".512"/><stop stop-color="#3F76DA" offset=".516"/><stop stop-color="#4075DA" offset=".52"/><stop stop-color="#4074DB" offset=".523"/><stop stop-color="#4174DB" offset=".527"/><stop stop-color="#4173DB" offset=".531"/><stop stop-color="#4273DB" offset=".535"/><stop stop-color="#4272DB" offset=".539"/><stop stop-color="#4271DB" offset=".543"/><stop stop-color="#4371DB" offset=".547"/><stop stop-color="#4370DB" offset=".551"/><stop stop-color="#4470DB" offset=".555"/><stop stop-color="#446FDB" offset=".559"/><stop stop-color="#456EDC" offset=".563"/><stop stop-color="#456EDC" offset=".566"/><stop stop-color="#466DDC" offset=".57"/><stop stop-color="#466DDC" offset=".574"/><stop stop-color="#476CDC" offset=".578"/><stop stop-color="#476CDC" offset=".582"/><stop stop-color="#486BDC" offset=".586"/><stop stop-color="#486ADC" offset=".59"/><stop stop-color="#496ADC" offset=".594"/><stop stop-color="#4969DD" offset=".598"/><stop stop-color="#4A69DD" offset=".602"/><stop stop-color="#4A68DD" offset=".605"/><stop stop-color="#4B67DD" offset=".609"/><stop stop-color="#4B67DD" offset=".613"/><stop stop-color="#4C66DD" offset=".617"/><stop stop-color="#4C66DD" offset=".621"/><stop stop-color="#4D65DD" offset=".625"/><stop stop-color="#4D64DD" offset=".629"/><stop stop-color="#4D64DE" offset=".633"/><stop stop-color="#4E63DE" offset=".637"/><stop stop-color="#4E63DE" offset=".641"/><stop stop-color="#4F62DE" offset=".645"/><stop stop-color="#4F61DE" offset=".648"/><stop stop-color="#5061DE" offset=".652"/><stop stop-color="#5060DE" offset=".656"/><stop stop-color="#5160DE" offset=".66"/><stop stop-color="#515FDE" offset=".664"/><stop stop-color="#525EDF" offset=".668"/><stop stop-color="#525EDF" offset=".672"/><stop stop-color="#535DDF" offset=".676"/><stop stop-color="#535DDF" offset=".68"/><stop stop-color="#545CDF" offset=".684"/><stop stop-color="#545BDF" offset=".688"/><stop stop-color="#555BDF" offset=".691"/><stop stop-color="#555ADF" offset=".695"/><stop stop-color="#565ADF" offset=".699"/><stop stop-color="#5659DF" offset=".703"/><stop stop-color="#5758E0" offset=".707"/><stop stop-color="#5758E0" offset=".711"/><stop stop-color="#5857E0" offset=".715"/><stop stop-color="#5857E0" offset=".719"/><stop stop-color="#5956E0" offset=".723"/><stop stop-color="#5956E0" offset=".727"/><stop stop-color="#5955E0" offset=".73"/><stop stop-color="#5A54E0" offset=".734"/><stop stop-color="#5A54E0" offset=".738"/><stop stop-color="#5B53E1" offset=".742"/><stop stop-color="#5B53E1" offset=".746"/><stop stop-color="#5C52E1" offset=".75"/><stop stop-color="#5C51E1" offset=".754"/><stop stop-color="#5D51E1" offset=".758"/><stop stop-color="#5D50E1" offset=".762"/><stop stop-color="#5E50E1" offset=".766"/><stop stop-color="#5E4FE1" offset=".77"/><stop stop-color="#5F4EE1" offset=".773"/><stop stop-color="#5F4EE2" offset=".777"/><stop stop-color="#604DE2" offset=".781"/><stop stop-color="#604DE2" offset=".785"/><stop stop-color="#614CE2" offset=".789"/><stop stop-color="#614BE2" offset=".793"/><stop stop-color="#624BE2" offset=".797"/><stop stop-color="#624AE2" offset=".801"/><stop stop-color="#634AE2" offset=".805"/><stop stop-color="#6349E2" offset=".809"/><stop stop-color="#6448E3" offset=".813"/><stop stop-color="#6448E3" offset=".816"/><stop stop-color="#6447E3" offset=".82"/><stop stop-color="#6547E3" offset=".824"/><stop stop-color="#6546E3" offset=".828"/><stop stop-color="#6645E3" offset=".832"/><stop stop-color="#6645E3" offset=".836"/><stop stop-color="#6744E3" offset=".84"/><stop stop-color="#6744E3" offset=".844"/><stop stop-color="#6843E3" offset=".848"/><stop stop-color="#6842E4" offset=".852"/><stop stop-color="#6942E4" offset=".855"/><stop stop-color="#6941E4" offset=".859"/><stop stop-color="#6A41E4" offset=".863"/><stop stop-color="#6A40E4" offset=".867"/><stop stop-color="#6B40E4" offset=".871"/><stop stop-color="#6B3FE4" offset=".875"/><stop stop-color="#6C3EE4" offset=".879"/><stop stop-color="#6C3EE4" offset=".883"/><stop stop-color="#6D3DE5" offset=".887"/><stop stop-color="#6D3DE5" offset=".891"/><stop stop-color="#6E3CE5" offset=".895"/><stop stop-color="#6E3BE5" offset=".898"/><stop stop-color="#6F3BE5" offset=".902"/><stop stop-color="#6F3AE5" offset=".906"/><stop stop-color="#6F3AE5" offset=".91"/><stop stop-color="#7039E5" offset=".914"/><stop stop-color="#7038E5" offset=".918"/><stop stop-color="#7138E6" offset=".922"/><stop stop-color="#7137E6" offset=".926"/><stop stop-color="#7237E6" offset=".93"/><stop stop-color="#7236E6" offset=".934"/><stop stop-color="#7335E6" offset=".938"/><stop stop-color="#7335E6" offset=".941"/><stop stop-color="#7434E6" offset=".945"/><stop stop-color="#7434E6" offset=".949"/><stop stop-color="#7533E6" offset=".953"/><stop stop-color="#7532E7" offset=".957"/><stop stop-color="#7632E7" offset=".961"/><stop stop-color="#7631E7" offset=".965"/><stop stop-color="#7731E7" offset=".969"/><stop stop-color="#7730E7" offset=".973"/><stop stop-color="#782FE7" offset=".977"/><stop stop-color="#782FE7" offset=".98"/><stop stop-color="#792EE7" offset=".984"/><stop stop-color="#792EE7" offset=".988"/><stop stop-color="#7A2DE8" offset=".992"/><stop stop-color="#7A2CE8" offset=".996"/><stop stop-color="#7A2CE8" offset="1"/></linearGradient></defs><g clip-path="url(#a)"><g clip-path="url(#b)"><path fill="url(#c)" d="M 31.789062 31.789062 L 31.789062 343.039062 L 343.039062 343.039062 L 343.039062 31.789062 Z M 31.789062 31.789062"/></g></g><g fill="#FFF"><g><g><path d="M 70.578125 -42.21875 L 53.15625 -41.53125 C 42.445312 -41.53125 35.238281 -41.898438 31.53125 -42.640625 C 27.832031 -43.378906 24.53125 -44.257812 21.625 -45.28125 C 18.71875 -46.3125 16.410156 -47.507812 14.703125 -48.875 C 10.484375 -52.070312 8.375 -56.347656 8.375 -61.703125 C 8.375 -63.296875 9.34375 -65.6875 11.28125 -68.875 C 13.21875 -72.0625 16.550781 -75.847656 21.28125 -80.234375 C 26.007812 -84.628906 31.648438 -88.789062 38.203125 -92.71875 C 44.753906 -96.644531 53.382812 -100.085938 64.09375 -103.046875 C 74.800781 -106.015625 86.421875 -107.726562 98.953125 -108.1875 C 103.398438 -108.1875 108.097656 -107.644531 113.046875 -106.5625 C 118.003906 -105.476562 122.109375 -104.195312 125.359375 -102.71875 C 128.609375 -101.238281 131.484375 -98.988281 133.984375 -95.96875 C 136.492188 -92.945312 137.75 -89.441406 137.75 -85.453125 C 137.75 -82.265625 134.671875 -78.847656 128.515625 -75.203125 C 121.679688 -71.097656 112.648438 -69.046875 101.421875 -69.046875 C 90.203125 -69.046875 84.59375 -69.84375 84.59375 -71.4375 C 84.59375 -72.6875 87.867188 -74.164062 94.421875 -75.875 C 100.972656 -77.59375 107.550781 -79.585938 114.15625 -81.859375 C 120.769531 -84.140625 124.078125 -86.707031 124.078125 -89.5625 C 124.078125 -91.039062 121.570312 -91.78125 116.5625 -91.78125 C 83.519531 -91.78125 55.148438 -83.234375 31.453125 -66.140625 C 27.003906 -62.835938 24.78125 -59.988281 24.78125 -57.59375 C 24.78125 -53.832031 36.628906 -51.953125 60.328125 -51.953125 C 81.640625 -51.722656 92.296875 -46.023438 92.296875 -34.859375 C 92.296875 -26.890625 86.878906 -19.316406 76.046875 -12.140625 C 65.222656 -4.960938 52.488281 0.617188 37.84375 4.609375 C 23.207031 8.597656 9.453125 10.648438 -3.421875 10.765625 C -9.453125 10.765625 -15.828125 9.171875 -22.546875 5.984375 C -29.273438 2.796875 -32.640625 -1.078125 -32.640625 -5.640625 C -32.640625 -7.117188 -31.390625 -7.914062 -28.890625 -8.03125 C -15.441406 -9.507812 -6.835938 -11.101562 -3.078125 -12.8125 C -2.160156 -13.039062 -1.414062 -13.15625 -0.84375 -13.15625 C -0.28125 -13.15625 0 -13.039062 0 -12.8125 C 0 -12.363281 -0.679688 -11.625 -2.046875 -10.59375 C -3.304688 -9.914062 -4.675781 -9.289062 -6.15625 -8.71875 C -9.34375 -7.570312 -10.9375 -6.828125 -10.9375 -6.484375 C -10.9375 -6.148438 -9.796875 -5.984375 -7.515625 -5.984375 C -5.242188 -5.984375 0.503906 -6.894531 9.734375 -8.71875 C 18.960938 -10.539062 28.847656 -12.875 39.390625 -15.71875 C 49.929688 -18.570312 59.242188 -22.101562 67.328125 -26.3125 C 75.421875 -30.53125 79.46875 -34.578125 79.46875 -38.453125 C 79.46875 -40.960938 76.503906 -42.21875 70.578125 -42.21875 Z M 70.578125 -42.21875" transform="translate(84.334 240.881)"/></g></g></g><g fill="#FFF"><g><g><path d="M 75.03125 -109.03125 C 75.59375 -109.71875 76.328125 -110.0625 77.234375 -110.0625 C 78.148438 -110.0625 79.007812 -109.609375 79.8125 -108.703125 L 81.515625 -106.8125 C 82.085938 -106.363281 82.375 -105.878906 82.375 -105.359375 C 82.375 -104.847656 81.71875 -103.851562 80.40625 -102.375 C 79.101562 -100.894531 74.40625 -95.65625 66.3125 -86.65625 C 48.425781 -66.9375 38.171875 -55.367188 35.546875 -51.953125 C 34.179688 -50.585938 33.5 -49.757812 33.5 -49.46875 C 33.5 -49.1875 33.613281 -49.046875 33.84375 -49.046875 C 34.070312 -49.046875 34.640625 -49.21875 35.546875 -49.5625 C 46.828125 -52.75 61.867188 -59.78125 80.671875 -70.65625 C 99.472656 -81.539062 108.875 -89.035156 108.875 -93.140625 C 108.875 -93.367188 108.613281 -93.484375 108.09375 -93.484375 C 107.582031 -93.484375 106.695312 -93.195312 105.4375 -92.625 C 104.1875 -92.0625 102.992188 -91.78125 101.859375 -91.78125 C 100.722656 -91.78125 100.15625 -92.40625 100.15625 -93.65625 C 100.15625 -94.570312 100.953125 -95.3125 102.546875 -95.875 C 106.867188 -97.46875 116.328125 -103.335938 130.921875 -113.484375 C 131.710938 -114.273438 132.617188 -114.671875 133.640625 -114.671875 C 134.671875 -114.671875 136.179688 -113.585938 138.171875 -111.421875 C 140.171875 -109.265625 141.171875 -107.160156 141.171875 -105.109375 C 141.171875 -92.003906 131.085938 -79.984375 110.921875 -69.046875 C 93.597656 -59.472656 70.921875 -50.300781 42.890625 -41.53125 C 40.953125 -40.957031 39.984375 -40.390625 39.984375 -39.828125 C 39.984375 -37.890625 42.460938 -33.785156 47.421875 -27.515625 C 52.378906 -21.242188 58.25 -14.914062 65.03125 -8.53125 C 71.8125 -2.15625 77.164062 1.738281 81.09375 3.15625 C 85.019531 4.582031 86.984375 6.4375 86.984375 8.71875 C 86.984375 9.175781 86.53125 9.628906 85.625 10.078125 C 80.269531 12.703125 75.828125 14.015625 72.296875 14.015625 C 68.765625 14.015625 65.257812 12.957031 61.78125 10.84375 C 58.300781 8.738281 54.878906 5.664062 51.515625 1.625 C 48.160156 -2.414062 45.203125 -6.257812 42.640625 -9.90625 C 40.078125 -13.550781 37.085938 -18.023438 33.671875 -23.328125 C 30.253906 -28.628906 27.890625 -32.160156 26.578125 -33.921875 C 25.265625 -35.691406 24.296875 -36.578125 23.671875 -36.578125 C 23.046875 -36.578125 22.5625 -36.347656 22.21875 -35.890625 C 13.789062 -25.859375 7.523438 -17.910156 3.421875 -12.046875 C -0.679688 -6.179688 -4.101562 0.113281 -6.84375 6.84375 C -6.945312 7.863281 -7.398438 8.375 -8.203125 8.375 C -9.222656 8.375 -10.898438 7.117188 -13.234375 4.609375 C -15.578125 2.109375 -16.976562 -0.507812 -17.4375 -3.25 C -17.4375 -9.289062 -10.367188 -21.535156 3.765625 -39.984375 C 10.597656 -49.109375 20.304688 -59.847656 32.890625 -72.203125 C 45.484375 -84.566406 59.53125 -96.84375 75.03125 -109.03125 Z M 75.03125 -109.03125" transform="translate(181.07 240.881)"/></g></g></g></svg>