<svg xmlns="http://www.w3.org/2000/svg" xmlns:xlink="http://www.w3.org/1999/xlink" width="500" zoomAndPan="magnify" viewBox="0 0 375 374.999991" height="500" preserveAspectRatio="xMidYMid meet" version="1.0"><defs><g><g id="id1"/></g></defs><path fill="rgb(56.079102%, 0%, 0%)" d="M 199.984375 74.773438 L 51.058594 58.28125 L 25.742188 286.882812 L 167 372.625 L 323.59375 319.871094 L 348.910156 91.265625 L 199.984375 74.773438 " fill-opacity="1" fill-rule="nonzero"/><path fill="rgb(56.079102%, 0%, 0%)" d="M 175.015625 300.226562 L 323.941406 316.71875 L 349.257812 88.117188 L 208 2.375 L 51.40625 55.128906 L 26.089844 283.734375 L 175.015625 300.226562 " fill-opacity="1" fill-rule="nonzero"/><path stroke-linecap="butt" transform="matrix(5.570142, -1.866292, 1.866758, 5.571534, 65.535096, 66.595287)" fill="none" stroke-linejoin="miter" d="M 0.0000928055 -0.000244749 L 25.009135 0.000165989 " stroke="rgb(100%, 100%, 100%)" stroke-width="1" stroke-opacity="1" stroke-miterlimit="4"/><path stroke-linecap="butt" transform="matrix(0.665345, -5.822714, 5.83796, 0.667087, 43.443429, 282.834766)" fill="none" stroke-linejoin="miter" d="M -0.000162074 0.000341127 L 37.097886 -0.000227254 " stroke="rgb(100%, 100%, 100%)" stroke-width="1" stroke-opacity="1" stroke-miterlimit="4"/><path stroke-linecap="butt" transform="matrix(-5.570142, 1.866292, -1.866758, -5.571534, 310.723081, 308.772635)" fill="none" stroke-linejoin="miter" d="M 0.000111945 -0.000106551 L 25.009154 0.000304187 " stroke="rgb(100%, 100%, 100%)" stroke-width="1" stroke-opacity="1" stroke-miterlimit="4"/><path stroke-linecap="butt" transform="matrix(-0.665345, 5.822714, -5.83796, -0.667087, 332.826662, 92.534473)" fill="none" stroke-linejoin="miter" d="M 0.0000874654 -0.000260596 L 37.097549 -0.0000930169 " stroke="rgb(100%, 100%, 100%)" stroke-width="1" stroke-opacity="1" stroke-miterlimit="4"/><g fill="rgb(100%, 100%, 100%)" fill-opacity="1"><g transform="translate(61.375639, 272.325971)"><g><path d="M 9.390625 -28.890625 C 10.003906 -33.066406 12.296875 -36.535156 16.265625 -39.296875 C 20.242188 -42.054688 23.28125 -43.914062 25.375 -44.875 C 27.476562 -45.832031 28.921875 -46.597656 29.703125 -47.171875 C 27.835938 -26.484375 40.21875 -14.195312 66.84375 -10.3125 C 87.832031 -7.25 113.28125 -10.21875 143.1875 -19.21875 C 164.351562 -25.351562 179.015625 -32.664062 187.171875 -41.15625 C 189.847656 -43.769531 191.320312 -46.035156 191.59375 -47.953125 C 191.875 -49.867188 191.765625 -51.441406 191.265625 -52.671875 L 55.359375 -104.625 C 51.441406 -106.125 47.773438 -108.617188 44.359375 -112.109375 C 38.085938 -118.097656 35.25 -123.125 35.84375 -127.1875 C 38.113281 -142.757812 51.226562 -155.25 75.1875 -164.65625 C 101.5625 -174.875 135.6875 -180.5 177.5625 -181.53125 C 187.039062 -181.78125 194.054688 -181.675781 198.609375 -181.21875 C 199.890625 -180.582031 201.914062 -179.890625 204.6875 -179.140625 C 207.46875 -178.390625 210.273438 -177.457031 213.109375 -176.34375 C 219.867188 -173.75 222.378906 -170.390625 220.640625 -166.265625 C 219.515625 -158.597656 203.945312 -154.648438 173.9375 -154.421875 C 135.207031 -154.296875 110.878906 -153 100.953125 -150.53125 C 91.023438 -148.0625 83.675781 -145.097656 78.90625 -141.640625 C 74.144531 -138.191406 71.238281 -133.660156 70.1875 -128.046875 C 70.019531 -126.921875 72.429688 -125.300781 77.421875 -123.1875 C 82.421875 -121.082031 88.394531 -118.546875 95.34375 -115.578125 C 102.289062 -112.609375 111.285156 -108.695312 122.328125 -103.84375 C 149.191406 -92.101562 182.082031 -77.398438 221 -59.734375 C 222.53125 -54.441406 222.984375 -49.644531 222.359375 -45.34375 C 220.617188 -33.394531 211.941406 -22.910156 196.328125 -13.890625 C 178.722656 -3.773438 155.304688 3.523438 126.078125 8.015625 C 101.796875 11.617188 82.773438 12.421875 69.015625 10.421875 C 57.503906 8.734375 46.851562 5.101562 37.0625 -0.46875 C 27.28125 -6.039062 20.070312 -11.125 15.4375 -15.71875 C 10.800781 -20.320312 8.785156 -24.710938 9.390625 -28.890625 Z M 9.390625 -28.890625 "/></g></g></g></svg>